<svg width="40" height="40" viewBox="0 0 40 40" fill="none" xmlns="http://www.w3.org/2000/svg">
<path fill-rule="evenodd" clip-rule="evenodd" d="M15.4565 13.1293L18.4904 11.379L21.5632 9.62867C22.0689 9.3175 22.6134 9.55088 22.9246 9.93984L30.8594 20.4418C31.1705 20.9085 30.9372 21.5309 30.4315 21.8809L25.9196 24.4092L21.4076 26.9763C20.902 27.2875 20.2018 27.1708 20.0463 26.6652L14.9898 14.4907C14.8342 13.985 14.9509 13.4016 15.4565 13.1293ZM17.2457 13.4794L20.9798 11.379C21.2131 11.2234 21.5243 11.3401 21.7188 11.6124C21.8744 11.8457 21.7577 12.1958 21.4854 12.3514L17.8292 14.4518C17.5958 14.6074 17.2457 14.4907 17.0902 14.2184C16.9346 13.985 17.0513 13.635 17.2457 13.4794Z" fill="#1E40AF"/>
<path fill-rule="evenodd" clip-rule="evenodd" d="M15.4565 13.1293L18.4904 11.3789L19.0738 12.4291L17.2457 13.4793C17.0123 13.6349 16.9345 13.985 17.0512 14.2184C17.2068 14.4906 17.5569 14.5684 17.7902 14.4517L19.6183 13.4015L25.9584 24.4091L21.4465 26.9763C20.9408 27.2874 20.2407 27.1707 20.0851 26.6651L15.0286 14.4906C14.8341 13.985 14.9508 13.4015 15.4565 13.1293Z" fill="#3B82F6"/>
<path fill-rule="evenodd" clip-rule="evenodd" d="M20.2787 18.2247L21.8735 17.2912L23.4682 16.3577C23.7405 16.1632 23.9739 16.1632 24.0517 16.2799L26.152 18.2636C26.2298 18.3414 26.0743 18.5748 25.802 18.7693L23.4682 20.0917L21.1344 21.4142C20.8622 21.6087 20.551 21.6476 20.551 21.492L19.8898 18.6526C19.8898 18.5359 20.0065 18.3414 20.2787 18.2247Z" fill="#1D4ED8"/>
<path fill-rule="evenodd" clip-rule="evenodd" d="M20.2787 18.2248L21.8735 17.2913L23.4682 20.0918L21.1344 21.4143C20.8622 21.6087 20.551 21.6476 20.551 21.492L19.8898 18.6526C19.8898 18.5359 20.0065 18.3415 20.2787 18.2248Z" fill="#60A5FA"/>
<path fill-rule="evenodd" clip-rule="evenodd" d="M23.7407 24.2534L25.3355 23.3199L26.9302 22.3864C27.2025 22.2308 27.358 22.0752 27.2803 21.9196L26.619 19.0802C26.619 18.9246 26.3079 19.0024 26.0356 19.158L23.7018 20.4805L21.3681 21.8029C21.0958 21.9974 20.9013 22.2308 21.018 22.3086L23.1184 24.2923C23.2351 24.409 23.4684 24.409 23.7407 24.2534Z" fill="#1D4ED8"/>
<path fill-rule="evenodd" clip-rule="evenodd" d="M23.7414 24.2535L25.3362 23.3199L23.7414 20.5194L21.4077 21.8419C21.1354 22.0364 20.9409 22.2698 21.0576 22.3475L23.158 24.3312C23.2358 24.409 23.4692 24.409 23.7414 24.2535Z" fill="#60A5FA"/>
<path fill-rule="evenodd" clip-rule="evenodd" d="M22.0287 18.8469L23.1956 18.1857C23.2345 18.1468 23.2734 18.1857 23.2734 18.2246L23.7402 18.9636C23.7402 19.0025 23.7402 19.0414 23.7013 19.1192L22.6122 19.7805C22.5733 19.7805 22.4566 19.7805 22.4566 19.7416L21.9898 19.0025C21.9898 18.9636 21.9898 18.8469 22.0287 18.8469Z" fill="#1E40AF"/>
<path fill-rule="evenodd" clip-rule="evenodd" d="M21.9522 18.1468L22.6134 17.7968C22.6523 17.7579 22.6912 17.7579 22.769 17.7968C22.8079 17.7968 22.8468 17.8357 22.8468 17.8357L23.1579 18.4191C23.1968 18.458 23.1968 18.4969 23.1968 18.5747C23.1968 18.6136 23.1579 18.6525 23.119 18.7303L22.4578 19.0415C22.4189 19.0804 22.38 19.0804 22.3022 19.0804C22.2633 19.0415 22.2633 19.0415 22.2244 19.0026L22.1466 18.847L22.38 18.6914L22.4189 18.7692L22.9246 18.4969L22.6523 18.0302L22.1466 18.3024L22.1855 18.3802L21.991 18.458L21.9133 18.3024C21.8744 18.2635 21.8744 18.2246 21.8744 18.1468C21.9133 18.1857 21.9133 18.1468 21.9522 18.1468Z" fill="#1E40AF"/>
<path fill-rule="evenodd" clip-rule="evenodd" d="M23.9358 22.0754L25.0249 21.4142C25.0638 21.4142 25.1027 21.4142 25.1805 21.4531L25.6084 22.1921C25.6473 22.231 25.6084 22.2699 25.5695 22.3477L24.4804 23.0089C24.4415 23.0478 24.4026 23.0089 24.3248 22.9701L23.8969 22.231C23.8192 22.1921 23.897 22.1143 23.9358 22.0754Z" fill="#1E40AF"/>
<path fill-rule="evenodd" clip-rule="evenodd" d="M23.78 21.3363L24.4412 20.9862C24.4801 20.9862 24.519 20.9862 24.5968 20.9862C24.6357 20.9862 24.6746 21.0251 24.7524 21.064L25.0636 21.6474C25.0636 21.6863 25.0636 21.7252 25.0636 21.803C25.0636 21.8419 25.0247 21.8419 24.9858 21.8808L24.7524 22.0364L24.5968 21.8419L24.7913 21.6863L24.5579 21.2196L24.0523 21.4919L24.4023 22.192L24.169 22.3476L23.7411 21.6085C23.7022 21.5696 23.7022 21.5307 23.7411 21.453C23.7411 21.453 23.78 21.3752 23.78 21.3363Z" fill="#1E40AF"/>
<path fill-rule="evenodd" clip-rule="evenodd" d="M15.8069 5C15.8847 5 15.9625 5 16.0014 5C15.8458 5.07779 15.6903 5.27227 15.4569 5.54455C13.2398 5.73903 11.4506 7.60604 11.4506 9.90091C11.4506 12.2736 13.4343 14.2573 15.8069 14.2573C17.3628 14.2573 18.7631 13.4404 19.541 12.1958L20.3967 11.6901C19.6577 13.5182 17.9073 14.8018 15.8069 14.8018C13.0842 14.8018 10.906 12.5847 10.906 9.90091C10.906 7.21708 13.0842 5 15.8069 5ZM20.1633 10.4066C20.1633 10.251 20.1633 10.0954 20.1633 9.90091C20.1633 9.47305 20.1244 9.12298 20.0077 8.73402L20.5523 8.69513C20.6301 9.12298 20.7079 9.47305 20.7079 9.90091C20.7079 9.9398 20.7079 10.0565 20.7079 10.0954L20.1633 10.4066Z" fill="#B3B3B3"/>
<path fill-rule="evenodd" clip-rule="evenodd" d="M13.1236 22.5035H14.9128H16.702V34.3668L14.9128 35.5726L13.1236 34.3668V22.5035Z" fill="#BFDAE1"/>
<path fill-rule="evenodd" clip-rule="evenodd" d="M13.1236 22.5035H14.9128V35.5726L13.1236 34.3668V22.5035Z" fill="white"/>
<path fill-rule="evenodd" clip-rule="evenodd" d="M11.9165 26.5874L13.1222 25.5761V27.5987L11.9165 26.5874Z" fill="white"/>
<path fill-rule="evenodd" clip-rule="evenodd" d="M11.9165 26.5874L13.1222 25.5761V26.5874H11.9165Z" fill="#BFDAE1"/>
<path fill-rule="evenodd" clip-rule="evenodd" d="M11.9165 28.8044L13.1222 27.7931V29.8157L11.9165 28.8044Z" fill="white"/>
<path fill-rule="evenodd" clip-rule="evenodd" d="M11.9165 28.8044L13.1222 27.7931V28.8044H11.9165Z" fill="#BFDAE1"/>
<path fill-rule="evenodd" clip-rule="evenodd" d="M11.9165 30.9827L13.1222 29.9714V31.994L11.9165 30.9827Z" fill="white"/>
<path fill-rule="evenodd" clip-rule="evenodd" d="M11.9165 30.9827L13.1222 29.9714V30.9827H11.9165Z" fill="#BFDAE1"/>
<path fill-rule="evenodd" clip-rule="evenodd" d="M14.9122 12.6628C18.1795 12.6628 20.8244 17.4859 20.8244 19.8197C20.8244 22.1923 18.1406 24.0982 14.9122 24.0982C11.6449 24.0982 9 22.2312 9 19.8197C9 17.4859 11.6449 12.6628 14.9122 12.6628ZM14.9122 13.9075C16.3514 13.9075 17.4793 14.841 17.4793 15.3466C17.4793 15.8134 16.3125 16.1634 14.9122 16.1634C13.4731 16.1634 12.3062 15.8134 12.3062 15.3466C12.3062 14.841 13.5119 13.9075 14.9122 13.9075Z" fill="#AC6730"/>
<path fill-rule="evenodd" clip-rule="evenodd" d="M20.7855 20.2472C20.5132 22.4254 17.985 24.0979 14.9122 24.0979C11.8394 24.0979 9.27227 22.3865 9 20.2472C9.27227 17.7579 11.8394 13.4404 14.9122 13.4404C17.985 13.4404 20.5132 17.7579 20.7855 20.2472ZM14.9122 13.9072C16.3514 13.9072 17.4793 14.8407 17.4793 15.3463C17.4793 15.8131 16.3125 16.1631 14.9122 16.1631C13.4731 16.1631 12.3062 15.8131 12.3062 15.3463C12.3062 14.8407 13.5119 13.9072 14.9122 13.9072Z" fill="#BF8849"/>
<path fill-rule="evenodd" clip-rule="evenodd" d="M14.9122 24.0979C11.8394 24.0979 9.27227 22.3865 9 20.2472C9.27227 17.7579 11.8394 13.4404 14.9122 13.4404V13.9072C13.4731 13.9072 12.3062 14.8407 12.3062 15.3463C12.3062 15.8131 13.5119 16.1631 14.9122 16.1631V24.0979Z" fill="#CB9F52"/>
<path fill-rule="evenodd" clip-rule="evenodd" d="M15.8058 5C15.8836 5 15.9614 5 16.0003 5C15.8447 5.07779 15.6891 5.27227 15.4558 5.54455C13.7054 5.73903 12.2274 6.90591 11.6828 8.57844H11.0994C11.6439 6.51695 13.5499 5 15.8058 5ZM15.4169 14.2573C15.5724 14.2573 15.6891 14.2573 15.7669 14.2573C17.3228 14.2573 18.723 13.4404 19.501 12.1958L20.3567 11.6901C19.6176 13.5182 17.8673 14.8018 15.7669 14.8018C15.6891 14.8018 15.5336 14.8018 15.4169 14.8018V14.2573ZM20.1622 10.4066C20.1622 10.251 20.1622 10.0954 20.1622 9.90091C20.1622 9.47305 20.1233 9.12298 20.0066 8.73402L20.5512 8.69513C20.6289 9.12298 20.7067 9.47305 20.7067 9.90091C20.7067 9.9398 20.7067 10.0565 20.7067 10.0954L20.1622 10.4066Z" fill="#B3B3B3"/>
</svg>
