<svg width="1344" height="318" viewBox="0 0 1344 318" fill="none" xmlns="http://www.w3.org/2000/svg">
<rect width="1344" height="318" rx="20" fill="#F1F5F9"/>
<mask id="mask0_1_1436" style="mask-type:alpha" maskUnits="userSpaceOnUse" x="0" y="0" width="1344" height="318">
<rect width="1344" height="318" rx="20" fill="#2563EB"/>
</mask>
<g mask="url(#mask0_1_1436)">
<path opacity="0.2" d="M-36.9677 -115.054C29.1267 -149.242 104.854 -134.275 132.954 -83.7618C161.053 -33.2488 132.1 35.8652 66.0056 70.0534C-0.0887851 104.242 -75.8154 89.2748 -103.915 38.762C-132.015 -11.751 -103.062 -80.8658 -36.9677 -115.054Z" stroke="#3B82F6" stroke-width="7"/>
<path d="M1332.59 248.5C1411.07 248.5 1473.24 298.905 1473.24 359.5C1473.24 420.095 1411.07 470.5 1332.59 470.5C1254.12 470.5 1191.94 420.095 1191.94 359.5C1191.94 298.905 1254.12 248.5 1332.59 248.5Z" stroke="#2563EB" stroke-width="7"/>
</g>
</svg>
