<svg width="430" height="560" viewBox="0 0 430 560" fill="none" xmlns="http://www.w3.org/2000/svg">
<mask id="mask0_1_1504" style="mask-type:alpha" maskUnits="userSpaceOnUse" x="0" y="0" width="430" height="560">
<rect width="430" height="560" rx="20" fill="#2563EB"/>
</mask>
<g mask="url(#mask0_1_1504)">
<path opacity="0.2" d="M-6.70452 -219.652C16.8712 -286.774 43.378 -272.554 52.2075 -185.19C61.037 -97.8271 48.6084 27.2471 25.0326 94.3697C1.45693 161.492 -25.0499 147.271 -33.8794 59.9083C-42.7089 -27.4549 -30.2802 -152.529 -6.70452 -219.652Z" stroke="#3B82F6" stroke-width="7"/>
<path d="M426.352 434.947C428.428 434.947 430.742 435.851 433.312 438.152C435.905 440.471 438.572 444.054 441.224 448.957C446.524 458.759 451.408 473.174 455.551 491.284C463.823 527.449 468.97 577.584 468.97 633.081C468.97 688.579 463.823 738.714 455.551 774.879C451.408 792.99 446.524 807.404 441.224 817.206C438.572 822.109 435.905 825.693 433.312 828.012C430.742 830.312 428.428 831.217 426.352 831.217C424.275 831.217 421.962 830.312 419.391 828.012C416.798 825.693 414.13 822.11 411.479 817.206C406.178 807.404 401.295 792.989 397.152 774.879C388.881 738.714 383.732 688.579 383.732 633.081C383.732 577.584 388.881 527.449 397.152 491.284C401.295 473.174 406.178 458.759 411.479 448.957C414.13 444.054 416.798 440.471 419.391 438.152C421.962 435.851 424.275 434.947 426.352 434.947Z" stroke="#2563EB" stroke-width="7"/>
</g>
</svg>
