<svg width="40" height="40" viewBox="0 0 40 40" fill="none" xmlns="http://www.w3.org/2000/svg">
<path d="M26.6667 6.66663H30C30.8841 6.66663 31.7319 7.01782 32.357 7.64294C32.9821 8.26806 33.3333 9.1159 33.3333 9.99996V33.3333C33.3333 34.2173 32.9821 35.0652 32.357 35.6903C31.7319 36.3154 30.8841 36.6666 30 36.6666H10C9.11594 36.6666 8.2681 36.3154 7.64297 35.6903C7.01785 35.0652 6.66666 34.2173 6.66666 33.3333V9.99996C6.66666 9.1159 7.01785 8.26806 7.64297 7.64294C8.2681 7.01782 9.11594 6.66663 10 6.66663H13.3333" stroke="#2563EB" stroke-width="2" stroke-linecap="round" stroke-linejoin="round"/>
<path d="M25 3.33337H15C14.0795 3.33337 13.3333 4.07957 13.3333 5.00004V8.33337C13.3333 9.25385 14.0795 10 15 10H25C25.9205 10 26.6667 9.25385 26.6667 8.33337V5.00004C26.6667 4.07957 25.9205 3.33337 25 3.33337Z" stroke="#2563EB" stroke-width="2" stroke-linecap="round" stroke-linejoin="round"/>
</svg>
