<svg width="318" height="280" viewBox="0 0 318 280" fill="none" xmlns="http://www.w3.org/2000/svg">
<path d="M0 8C0 3.58172 3.58172 0 8 0H310C314.418 0 318 3.58172 318 8V280H0V8Z" fill="#F8FAFC"/>
<path d="M188.167 102.5H129.833C125.231 102.5 121.5 106.231 121.5 110.833V169.167C121.5 173.769 125.231 177.5 129.833 177.5H188.167C192.769 177.5 196.5 173.769 196.5 169.167V110.833C196.5 106.231 192.769 102.5 188.167 102.5Z" stroke="#64748B" stroke-width="2" stroke-linecap="round" stroke-linejoin="round"/>
<path d="M146.5 135.833C151.102 135.833 154.833 132.102 154.833 127.5C154.833 122.898 151.102 119.167 146.5 119.167C141.898 119.167 138.167 122.898 138.167 127.5C138.167 132.102 141.898 135.833 146.5 135.833Z" stroke="#64748B" stroke-width="2" stroke-linecap="round" stroke-linejoin="round"/>
<path d="M196.5 152.5L183.642 139.642C182.079 138.079 179.96 137.202 177.75 137.202C175.54 137.202 173.421 138.079 171.858 139.642L134 177.5" stroke="#64748B" stroke-width="2" stroke-linecap="round" stroke-linejoin="round"/>
</svg>
