<svg width="40" height="40" viewBox="0 0 40 40" fill="none" xmlns="http://www.w3.org/2000/svg">
<path d="M1.66669 6.66663V16.6666H11.6667" stroke="#2563EB" stroke-width="2" stroke-linecap="round" stroke-linejoin="round"/>
<path d="M38.3333 33.3334V23.3334H28.3333" stroke="#2563EB" stroke-width="2" stroke-linecap="round" stroke-linejoin="round"/>
<path d="M34.15 15C33.3047 12.6113 31.8681 10.4756 29.9742 8.79233C28.0804 7.10902 25.7909 5.93291 23.3195 5.37373C20.8482 4.81455 18.2754 4.89053 15.8414 5.59459C13.4073 6.29864 11.1913 7.60782 9.40002 9.39996L1.66669 16.6666M38.3334 23.3333L30.6 30.6C28.8088 32.3921 26.5927 33.7013 24.1587 34.4053C21.7246 35.1094 19.1519 35.1854 16.6805 34.6262C14.2091 34.067 11.9197 32.8909 10.0258 31.2076C8.13191 29.5243 6.6953 27.3887 5.85002 25" stroke="#2563EB" stroke-width="2" stroke-linecap="round" stroke-linejoin="round"/>
</svg>
